<?xml version="1.0" encoding="utf-8"?>
<svg viewBox="47.59 41.922 218.356 74.045" width="215.90980911254883" height="52.409088134765625" xmlns="http://www.w3.org/2000/svg">
  <defs>
    <pattern id="pattern-0" x="0" y="0" width="20" height="20" patternUnits="userSpaceOnUse" viewBox="0 0 100 100">
      <path d="M 0 0 L 50 0 L 50 100 L 0 100 Z" style="fill: black;"/>
    </pattern>
  </defs>
  <path d="M 127.136 70.438 L 116.098 70.438 L 116.098 76.347 L 126.382 76.347 L 126.382 80.045 L 116.098 80.045 L 116.098 86.196 L 127.136 86.196 L 127.136 90.136 L 111.573 90.136 L 111.573 66.499 L 127.136 66.499 L 127.136 70.438 Z M 149.65 90.136 L 147.662 84.77 L 137.486 84.77 L 135.498 90.136 L 130.973 90.136 L 140.023 66.499 L 145.302 66.499 L 154.352 90.136 L 149.65 90.136 Z M 138.887 80.966 L 146.262 80.966 L 142.589 70.914 L 138.887 80.966 Z M 177.483 90.136 L 172.518 90.136 L 167.65 81.131 L 163.399 81.131 L 163.399 90.136 L 158.874 90.136 L 158.874 66.499 L 167.474 66.499 C 170.562 66.499 172.87 67.11 174.398 68.333 C 175.932 69.556 176.7 71.331 176.7 73.66 C 176.7 75.316 176.321 76.719 175.564 77.871 C 174.812 79.029 173.693 79.889 172.204 80.452 L 177.483 90.136 Z M 163.399 70.468 L 163.399 77.191 L 167.513 77.191 C 169.021 77.191 170.134 76.932 170.853 76.416 C 171.571 75.892 171.93 75.008 171.93 73.767 C 171.93 72.563 171.577 71.712 170.872 71.215 C 170.16 70.717 169.027 70.468 167.474 70.468 L 163.399 70.468 Z M 190.272 90.543 C 188.992 90.543 187.631 90.371 186.188 90.029 C 184.751 89.692 183.393 89.23 182.114 88.641 L 182.114 84.294 C 185.084 85.879 187.736 86.672 190.067 86.672 C 191.228 86.672 192.168 86.422 192.887 85.925 C 193.612 85.427 193.974 84.724 193.974 83.819 C 193.974 83.185 193.772 82.648 193.367 82.208 C 192.969 81.762 192.472 81.4 191.878 81.122 C 191.284 80.837 190.439 80.491 189.342 80.083 C 187.859 79.54 186.648 79.019 185.708 78.521 C 184.774 78.024 183.975 77.315 183.309 76.396 C 182.649 75.478 182.319 74.294 182.319 72.845 C 182.319 70.717 183.06 69.061 184.543 67.877 C 186.031 66.687 188.065 66.092 190.644 66.092 C 191.859 66.092 193.047 66.22 194.209 66.479 C 195.378 66.738 196.452 67.117 197.432 67.615 L 197.432 71.864 C 195.126 70.596 192.9 69.963 190.752 69.963 C 189.563 69.963 188.63 70.174 187.951 70.594 C 187.278 71.008 186.942 71.6 186.942 72.37 C 186.942 73.139 187.291 73.747 187.99 74.194 C 188.689 74.633 189.769 75.112 191.232 75.63 C 192.76 76.199 194.016 76.743 195.003 77.26 C 195.982 77.783 196.83 78.538 197.549 79.521 C 198.274 80.503 198.659 81.778 198.705 83.344 C 198.705 85.582 197.937 87.341 196.403 88.622 C 194.875 89.903 192.831 90.543 190.272 90.543 Z" style="fill: rgb(56, 101, 151); paint-order: stroke; white-space: pre;"/>
  <circle style="fill: rgb(56, 101, 151); paint-order: stroke;" cx="64.914" cy="68.759" r="34.903" transform="matrix(0.725055, 0, 0, 0.728484, 30.277731, 33.935169)"/>
  <circle style="paint-order: stroke; fill: rgb(255, 255, 255);" cx="103.547" cy="104.871" r="8.27" transform="matrix(0.979404, 0, 0, 0.970285, -23.842703, -30.648771)"/>
  <circle style="paint-order: stroke; fill: rgb(255, 255, 255);" cx="103.547" cy="104.871" r="8.27" transform="matrix(0.979404, 0, 0, 0.970295, -35.087467, -11.01125)"/>
  <circle style="paint-order: stroke; fill: rgb(255, 255, 255);" cx="103.547" cy="104.871" r="8.27" transform="matrix(0.979405, 0, 0, 0.970293, -11.735613, -11.011367)"/>
  <text x="102.786" y="87.113" style="fill: rgb(56, 101, 151); font-family: sans-serif; font-size: 12px; white-space: pre;" transform="matrix(0.979404, 0, 0, 0.9703, 5.427327, 17.921911)">East Anglian Rocketry Society</text>
  <rect x="47.59" y="41.922" width="218.356" height="74.045" style="paint-order: stroke; fill: none; stroke: rgb(56, 101, 151);"/>
</svg>